PathFileType	4	(X/Y/Z)	 s08c0301.trc
DataRate	CameraRate	NumFrames	NumMarkers	Units	OrigDataRate	OrigDataStartFrame	OrigNumFrames
200	200	7	50	mm	200	1	2000
Frame#	Time	racr			lacr			c7			jug			rlel			rdr			llel			ldr			s2			lic			ric			lasi			rasi			rpsi			lpsi			rgt			lgt			rth1			rth2			rth3			rth4			rlfc			rmfc			rsh1			rsh2			rsh3			rsh4			rlmal			rmmal			rcal			rtoe			rmt5			lth1			lth2			lth4			lth3			llfc			lmfc			llmal			lmmal			lcal			lmt5			lsh1			lsh2			lsh3			lsh4			ltoe			SBIKE			LBIKE			RBIKE			
		X1	Y1	Z1	X2	Y2	Z2	X3	Y3	Z3	X4	Y4	Z4	X5	Y5	Z5	X6	Y6	Z6	X7	Y7	Z7	X8	Y8	Z8	X9	Y9	Z9	X10	Y10	Z10	X11	Y11	Z11	X12	Y12	Z12	X13	Y13	Z13	X14	Y14	Z14	X15	Y15	Z15	X16	Y16	Z16	X17	Y17	Z17	X18	Y18	Z18	X19	Y19	Z19	X20	Y20	Z20	X21	Y21	Z21	X22	Y22	Z22	X23	Y23	Z23	X24	Y24	Z24	X25	Y25	Z25	X26	Y26	Z26	X27	Y27	Z27	X28	Y28	Z28	X29	Y29	Z29	X30	Y30	Z30	X31	Y31	Z31	X32	Y32	Z32	X33	Y33	Z33	X34	Y34	Z34	X35	Y35	Z35	X36	Y36	Z36	X37	Y37	Z37	X38	Y38	Z38	X39	Y39	Z39	X40	Y40	Z40	X41	Y41	Z41	X42	Y42	Z42	X43	Y43	Z43	X44	Y44	Z44	X45	Y45	Z45	X46	Y46	Z46	X47	Y47	Z47	X48	Y48	Z48	X49	Y49	Z49	X50	Y50	Z50	
1	0.0050	838.994951	1376.191009	-165.442753	803.014034	1363.183497	-477.939572	793.562296	1423.959925	-313.895340	756.909085	1266.217459	-304.863949	746.024730	1171.526034	20.149121	810.768659	894.006513	-39.105872	642.831372	1110.799945	-519.984156	812.991926	922.851121	-430.683111	233.551372	1276.859597	-178.905844	347.919063	1258.824059	-356.541888	429.308219	1254.951938	-55.075046	NaN	NaN	NaN	426.765336	1190.660904	-91.687002	282.226977	1309.837722	-132.970928	260.212747	1319.526080	-224.994282	332.467446	1146.553479	-6.209493	294.573967	1163.834689	-382.477751	400.446902	987.494962	-18.489490	446.011551	911.573898	-27.758807	447.829768	824.902880	-31.690789	476.938751	922.456916	-45.130520	463.634610	706.914150	-45.088537	436.729346	705.718843	-153.000297	352.456926	631.627467	-12.961540	307.392270	556.613993	-34.595519	233.926995	513.572645	-38.899359	349.799920	551.950718	-83.459815	138.630339	435.850995	-47.439761	191.276906	452.863662	-152.879508	77.305751	481.529567	-98.937267	NaN	NaN	NaN	NaN	NaN	NaN	372.636344	1052.312565	-398.437582	444.128283	1002.613163	-404.009909	472.400216	1025.053639	-395.933635	480.799516	921.463051	-408.817436	544.466767	804.060056	-393.506591	NaN	NaN	NaN	355.679560	428.224799	-388.237970	382.718607	440.129371	-308.210270	283.347256	409.959514	-347.889126	480.657426	329.753479	-415.179750	490.182397	686.374890	-415.665547	470.975427	604.133777	-397.412053	413.496072	538.043120	-396.785331	494.064047	597.360714	-366.271139	565.258950	352.203659	-350.544046	-134.943549	943.636999	-223.373378	25.018729	84.216714	-426.659942	17.534266	80.673780	-28.044612	
2	0.0100	838.930283	1374.643436	-162.990385	805.634343	1360.071334	-476.009602	794.887079	1421.089333	-312.469291	758.569851	1263.325763	-302.498109	745.889350	1169.356596	21.223181	811.740970	893.548673	-37.539818	643.546505	1109.329408	-520.710062	812.856490	922.032762	-429.943398	233.108461	1274.552048	-179.284977	348.617418	1255.181730	-357.557168	428.536024	1253.448124	-55.782428	NaN	NaN	NaN	426.121116	1189.592301	-92.008521	281.549038	1308.433222	-133.534773	260.434535	1316.577343	-225.840408	332.517898	1145.622706	-5.870186	293.846998	1159.495573	-382.478770	401.965066	987.760077	-17.578955	448.697826	912.597485	-26.914365	451.684215	825.825756	-30.732652	479.812703	923.563556	-42.922066	469.664526	708.788073	-45.149825	442.188278	707.647345	-152.945067	357.540856	636.475108	-12.678430	310.306337	562.522024	-34.871580	235.678568	521.424975	-39.300713	355.736050	559.447525	-83.134020	138.747288	446.647538	-47.656301	191.581661	463.098453	-153.288368	77.747845	492.658264	-99.272849	NaN	NaN	NaN	NaN	NaN	NaN	371.186376	1046.929553	-398.001560	441.820189	995.906493	-403.042578	470.412312	1017.852039	-394.963355	477.036120	914.175434	-407.247305	538.812234	796.317280	-391.687227	NaN	NaN	NaN	356.303618	417.064828	-388.623420	381.680594	427.157724	-307.823111	284.206608	398.821446	-348.418387	481.462512	318.106817	-414.925405	486.619857	677.578772	-414.333698	468.856602	594.900106	-396.449444	412.774395	527.622748	-396.577534	491.442526	588.796920	-364.860104	566.025414	340.382790	-350.281186	-134.733988	943.608457	-223.190059	25.055990	84.189955	-426.637022	17.507657	80.739991	-27.937949	
3	0.0150	845.136593	1374.975383	-180.499511	807.275158	1357.336330	-474.821395	796.197886	1418.507952	-310.796936	771.013858	1258.377956	-305.152586	746.031679	1167.258500	22.179963	810.760560	891.816168	-37.220968	644.238529	1107.501338	-521.529417	812.731954	921.087716	-429.139364	232.484386	1272.440702	-180.135658	349.422206	1251.411016	-358.514991	427.703901	1251.916820	-56.548610	NaN	NaN	NaN	425.242985	1188.527618	-92.396768	280.811615	1306.549384	-134.754729	260.161732	1314.055927	-227.190099	332.218211	1144.699445	-5.702411	293.363332	1154.944943	-382.649866	403.069918	987.747848	-16.558152	451.124092	913.402116	-26.010519	455.661376	826.622674	-30.088045	482.052736	924.955511	-42.343292	475.834004	710.812594	-45.383969	448.123969	709.466940	-153.055414	362.355619	641.565163	-13.243960	313.500425	568.500224	-35.251805	237.839674	529.333110	-39.789985	358.596744	564.893012	-83.448066	139.415700	457.558911	-47.906117	192.518398	473.363747	-153.664160	78.603683	503.721984	-99.556484	NaN	NaN	NaN	NaN	NaN	NaN	369.772934	1041.260440	-397.632308	439.397117	988.832399	-402.157981	468.375648	1010.282758	-394.111890	473.071733	906.441136	-405.730455	533.179719	788.458021	-390.207343	NaN	NaN	NaN	356.399950	406.138998	-388.710240	382.971039	418.157026	-308.440237	284.430414	388.205709	-348.765615	481.677943	306.646853	-414.528164	482.856374	668.614597	-412.706491	466.334080	585.651925	-395.342380	411.198061	518.447889	-397.873889	488.651974	579.751408	-363.186793	566.420366	328.734805	-349.935327	-134.490840	943.581776	-223.022412	25.160977	84.171174	-426.610691	17.501909	80.681305	-27.899096	
4	0.0200	850.476912	1375.496488	-195.704572	811.014169	1353.641098	-471.277202	797.495523	1416.158795	-308.854240	783.426403	1254.573632	-308.786873	745.928170	1165.304542	21.140785	807.889806	891.552462	-38.175744	645.756617	1107.094955	-525.577264	813.259637	917.980425	-425.546896	231.594063	1270.654515	-181.322891	350.586366	1247.263137	-359.745501	426.655839	1250.331397	-57.892350	NaN	NaN	NaN	424.311525	1187.304047	-92.856324	279.817042	1304.087229	-136.412312	259.750073	1310.598391	-228.943773	331.569724	1143.674655	-5.788747	292.887103	1150.060857	-382.661885	403.866443	987.498446	-15.470892	453.786932	914.132761	-25.061785	459.771308	827.550259	-30.205289	484.225885	926.108347	-42.638508	482.133479	712.719719	-47.076410	452.339215	712.853699	-155.705467	367.481201	646.756173	-13.827339	315.546748	574.012639	-38.014936	240.515071	537.229055	-40.156573	350.609194	566.704983	-84.408732	140.584368	468.512326	-48.150769	194.758040	483.912805	-153.386087	79.898847	514.716388	-99.653984	NaN	NaN	NaN	NaN	NaN	NaN	368.121332	1035.085731	-397.351387	436.802480	981.376592	-401.291737	466.174575	1002.362770	-393.438662	468.899477	898.404659	-404.378237	526.373398	781.192440	-390.785394	NaN	NaN	NaN	356.528537	394.483749	-387.056695	382.228863	407.239168	-308.108253	283.873208	377.955152	-348.994127	480.128173	297.193688	-416.739934	477.496025	660.670278	-413.416088	463.372404	579.178561	-399.032680	409.285067	508.386270	-396.899481	485.501468	573.186463	-366.023903	565.896921	317.259388	-349.826727	-134.287682	943.612689	-222.982007	25.274169	84.174338	-426.529942	16.868965	79.190123	-30.146138	
5	0.0250	854.989013	1376.192787	-208.701255	813.751276	1351.263108	-469.450474	798.817595	1414.643838	-306.412036	793.519219	1252.667981	-313.004337	746.157206	1165.464514	21.388879	806.372637	891.335349	-36.953956	648.525909	1107.221271	-530.771125	813.317402	918.823033	-427.917094	230.970081	1268.024333	-183.079077	351.917523	1243.261405	-361.163185	425.425349	1249.017121	-59.115540	386.671482	1203.543102	-325.169042	423.231854	1186.088246	-93.259730	278.952356	1302.781114	-137.970580	259.889242	1307.912169	-231.371116	330.581150	1142.705234	-6.272345	292.534222	1144.834237	-383.118541	405.255559	987.944113	-15.592963	455.960073	915.004333	-23.860464	463.999886	828.310417	-29.703210	486.424809	927.789719	-41.576880	488.643219	715.799620	-47.826964	458.236902	715.521741	-156.127143	372.925839	651.920719	-14.266058	321.307605	581.035429	-35.186810	242.991735	545.712142	-40.879007	346.026009	569.401865	-84.714078	142.406491	479.242153	-48.048911	NaN	NaN	NaN	81.652728	525.698802	-99.471729	NaN	NaN	NaN	NaN	NaN	NaN	366.547591	1028.596994	-397.189714	434.064208	973.600587	-400.349780	463.888547	993.940163	-392.548408	464.713486	890.236657	-402.564288	517.729401	772.858585	-390.128790	509.000440	736.671943	-308.514585	354.483365	384.356546	-387.243920	380.032689	397.677104	-307.937391	282.835717	367.193018	-348.381253	476.985040	286.404521	-417.154678	470.919879	651.828773	-412.690990	458.907746	571.049785	-399.961514	405.594800	498.507915	-396.280933	481.559115	565.198525	-366.527005	563.124331	306.119001	-350.178932	-134.178814	943.521676	-222.634983	24.955033	84.535815	-426.414760	16.898182	79.088504	-30.127121	
6	0.0300	858.710674	1377.050317	-219.585250	815.789310	1346.758604	-464.834313	800.139571	1412.819103	-303.965275	800.629622	1251.045514	-315.660378	746.072502	1164.898610	23.132337	809.132610	891.049249	-35.196484	651.340248	1106.617811	-534.290473	813.383183	914.552696	-422.734730	230.945283	1266.218924	-185.376813	353.712949	1239.194556	-362.846650	424.021404	1247.966863	-60.248939	387.637110	1198.825002	-325.814272	421.951855	1184.737720	-93.731261	278.785542	1301.466469	-140.523046	260.105960	1305.338482	-234.005784	329.303364	1141.815328	-7.092280	292.809808	1139.760460	-383.507209	406.397517	986.347477	-16.361053	458.788595	916.221120	-23.481541	468.830501	829.582584	-29.979160	488.774771	929.816232	-40.742009	497.120657	717.839239	-50.617909	466.002442	717.655268	-156.063861	378.570857	657.638275	-15.138386	324.291044	584.694787	-44.822256	246.813173	553.670906	-41.321155	344.424691	572.916322	-84.453551	144.781002	489.944230	-48.495264	NaN	NaN	NaN	83.893575	536.428088	-99.498341	NaN	NaN	NaN	NaN	NaN	NaN	364.864803	1022.087770	-397.004059	431.241630	965.572344	-399.658297	461.395806	985.449284	-392.181452	461.945315	884.088964	-406.528741	513.760638	763.267970	-386.406035	501.549796	728.078917	-306.981212	352.679041	373.798564	-386.996108	381.117080	387.149861	-308.353399	281.095279	356.862535	-348.322195	476.917752	274.174598	-414.893552	468.694064	641.477534	-407.887051	455.024421	560.646866	-396.971557	402.998064	487.639472	-393.663659	477.218722	553.590016	-360.871489	562.943593	293.392580	-347.930189	-134.055393	943.665913	-222.608257	25.363800	84.202125	-426.269601	16.921412	79.017337	-30.116352	
7	0.0350	861.679669	1378.055114	-228.452244	818.243229	1343.534280	-461.376745	801.264770	1411.635266	-301.354243	806.736137	1250.488121	-318.943200	745.697241	1163.907506	25.862468	809.037743	890.813813	-33.930781	654.143748	1105.559648	-536.450146	813.389835	913.601230	-422.876713	230.712439	1263.948551	-188.109498	355.773956	1234.953099	-364.616867	422.452971	1247.173496	-61.323305	388.507820	1194.390821	-326.772320	420.578922	1183.282827	-94.279632	277.604029	1299.588815	-142.617411	260.536753	1302.496779	-237.125829	327.787240	1141.029086	-8.187629	293.057218	1134.386050	-384.087331	406.892998	986.405903	-13.852247	461.887300	917.595038	-22.822499	474.117120	831.374131	-30.704441	491.650317	932.251109	-39.531231	503.577700	721.490755	-49.546338	473.011034	721.318655	-156.563765	384.463450	663.292341	-15.973421	328.565777	590.766096	-47.833797	250.937801	561.753161	-41.636342	345.382742	577.181016	-83.716593	147.680034	500.436306	-48.724190	NaN	NaN	NaN	86.437427	547.045617	-99.278236	NaN	NaN	NaN	NaN	NaN	NaN	363.155722	1015.361179	-397.032961	428.315439	957.349009	-399.065951	458.898750	976.670043	-391.720168	457.441367	877.106840	-409.830119	507.339026	754.136814	-384.129729	504.821293	723.495839	-286.109160	349.497382	363.899143	-387.717098	394.593326	386.981794	-315.337923	278.494927	346.718032	-348.472994	474.248576	263.034475	-414.367538	462.966342	632.470018	-406.647458	450.281840	551.183636	-395.779387	399.250481	477.540548	-392.999466	472.420516	545.134396	-360.601961	560.196199	281.962371	-347.267065	-134.120835	943.641226	-222.227883	25.435367	84.239471	-426.202053	16.940000	78.971968	-30.112698	
